Coordinates
version=1
nRows=43
nColumns=12
inDegrees=yes

Units are S.I. units (second, meters, Newtons, ...)
Angles are in degrees

endheader
time	SC_y	SC_z	SC_x	AC_y	AC_z	AC_x	GH_y	GH_z	GH_yy	EL_x	PS_y
       0.0              -24.18          4.666          69.99          69.86         -19.74          9.818          128.9          34.37          101.1          58.31          30.26
   0.02017              -24.18           4.67          69.99          69.86         -19.74          9.816          128.9          34.36          101.1          58.32          30.26
   0.04034              -24.18          4.674          69.98          69.85         -19.73          9.815          128.8          34.36          101.0          58.33          30.26
   0.06051              -24.18          4.678          69.98          69.85         -19.73          9.813          128.8          34.35          101.0          58.34          30.26
   0.08068              -24.18          4.682          69.98          69.85         -19.73          9.811          128.8          34.34          100.9          58.35          30.25
    0.1009              -24.18          4.687          69.97          69.85         -19.73          9.809          128.8          34.34          100.9          58.35          30.25
     0.121              -24.17          4.692          69.97          69.85         -19.73          9.806          128.7          34.33          100.9          58.36          30.25
    0.1412              -24.17          4.697          69.96          69.85         -19.73          9.804          128.7          34.32          100.8          58.37          30.25
    0.1614              -24.17          4.702          69.96          69.85         -19.73          9.801          128.7          34.31          100.7          58.38          30.25
    0.1815              -24.17          4.709          69.95          69.85         -19.73          9.799          128.6           34.3          100.7           58.4          30.24
    0.2017              -24.17          4.715          69.94          69.84         -19.73          9.796          128.6          34.29          100.6          58.41          30.24
    0.2219              -24.17          4.722          69.94          69.84         -19.72          9.792          128.5          34.28          100.6          58.42          30.24
     0.242              -24.17           4.73          69.93          69.84         -19.72          9.789          128.5          34.27          100.5          58.44          30.24
    0.2622              -24.17          4.738          69.92          69.84         -19.72          9.785          128.4          34.26          100.4          58.45          30.23
    0.2824              -24.16          4.747          69.91          69.84         -19.72          9.781          128.4          34.25          100.3          58.47          30.23
    0.3026              -24.16          4.756          69.91          69.83         -19.72          9.777          128.3          34.23          100.2          58.49          30.23
    0.3227              -24.16          4.767           69.9          69.83         -19.72          9.772          128.2          34.21          100.1          58.51          30.22
    0.3429              -24.16          4.778          69.88          69.83         -19.71          9.767          128.2           34.2          100.0          58.53          30.22
    0.3631              -24.16           4.79          69.87          69.82         -19.71          9.761          128.1          34.18           99.9          58.55          30.21
    0.3832              -24.15          4.804          69.86          69.82         -19.71          9.755          128.0          34.16          99.77          58.58          30.21
    0.4034              -24.15          4.819          69.85          69.82         -19.71          9.748          127.9          34.13          99.63          58.61           30.2
    0.4236              -24.15          4.835          69.83          69.81          -19.7           9.74          127.8          34.11          99.47          58.64           30.2
    0.4438              -24.14          4.854          69.81          69.81          -19.7          9.732          127.7          34.08           99.3          58.68          30.19
    0.4639              -24.14          4.874           69.8           69.8         -19.69          9.723          127.6          34.05           99.1          58.71          30.18
    0.4841              -24.14          4.896          69.77           69.8         -19.69          9.712          127.4          34.02          98.89          58.76          30.18
    0.5043              -24.13          4.921          69.75          69.79         -19.69          9.701          127.2          33.98          98.65          58.81          30.17
    0.5244              -24.13          4.949          69.72          69.78         -19.68          9.688          127.1          33.94          98.38          58.86          30.16
    0.5446              -24.12           4.98          69.69          69.78         -19.67          9.673          126.9          33.89          98.08          58.92          30.14
    0.5648              -24.11          5.016          69.66          69.77         -19.67          9.657          126.6          33.83          97.74          58.99          30.13
    0.5849              -24.11          5.056          69.62          69.76         -19.66          9.639          126.4          33.77          97.35          59.07          30.12
    0.6051               -24.1          5.102          69.58          69.75         -19.65          9.617          126.1           33.7          96.91          59.15           30.1
    0.6253              -24.09          5.155          69.53          69.73         -19.64          9.593          125.7          33.62           96.4          59.26          30.08
    0.6455              -24.08          5.216          69.47          69.72         -19.63          9.565          125.3          33.53          95.82          59.37          30.06
    0.6656              -24.06          5.286          69.41           69.7         -19.61          9.533          124.9          33.42          95.14          59.51          30.03
    0.6858              -24.05          5.369          69.33          69.68          -19.6          9.494          124.4           33.3          94.34          59.67           30.0
     0.706              -24.03          5.467          69.24          69.65         -19.58          9.449          123.7          33.15           93.4          59.86          29.96
    0.7261              -24.01          5.583          69.13          69.62         -19.55          9.396          123.0          32.97          92.29          60.08          29.92
    0.7463              -23.98          5.722           69.0          69.59         -19.53          9.332          122.1          32.76          90.95          60.35          29.87
    0.7665              -23.95           5.89          68.84          69.54         -19.49          9.255          121.0           32.5          89.33          60.67          29.81
    0.7867              -23.91          6.096          68.65          69.49         -19.45           9.16          119.7          32.19          87.36          61.07          29.73
    0.8068              -23.86          6.349          68.41          69.43          -19.4          9.043          118.0           31.8          84.92          61.56          29.64
     0.827              -23.81          6.666          68.11          69.35         -19.34          8.898          116.0          31.32          81.88          62.16          29.52
    0.8472              -23.73          7.064          67.73          69.25         -19.26          8.714          113.4          30.71          78.05          62.93          29.37
